<svg width="78" height="78" viewBox="0 0 78 78" fill="none" xmlns="http://www.w3.org/2000/svg">
<rect x="0.0664062" y="0.670898" width="77.8667" height="76.9874" rx="20" fill="#FF6B6B"/>
<path d="M15.6406 60.965V35.0946C15.6406 34.7302 15.8134 34.3827 16.1167 34.1372L38.0167 16.4068C38.5741 15.9555 39.4271 15.9555 39.9845 16.4068L61.8845 34.1372C62.1878 34.3827 62.3606 34.7279 62.3606 35.0922V60.9766C62.3606 61.6922 61.707 62.2608 60.9006 62.2608H17.1006C16.2943 62.2608 15.6406 61.6806 15.6406 60.965Z" stroke="#4A4A4A" stroke-width="2"/>
<path d="M30.2406 45.4148C30.2406 44.6991 30.8943 44.1189 31.7006 44.1189H46.3006C47.107 44.1189 47.7606 44.6991 47.7606 45.4148V60.965C47.7606 61.6806 47.107 62.2608 46.3006 62.2608H31.7006C30.8943 62.2608 30.2406 61.6806 30.2406 60.965V45.4148Z" stroke="#4A4A4A" stroke-width="2"/>
</svg>
