<svg width="78" height="78" viewBox="0 0 78 78" fill="none" xmlns="http://www.w3.org/2000/svg">
<rect x="0.0664062" y="0.371094" width="77.8667" height="76.9874" rx="20" fill="#E0E0E0"/>
<path d="M37.6052 20.1748C35.9294 20.1748 34.4416 21.235 33.9117 22.8069L33.1038 25.2034C33.0178 25.4584 32.8272 25.6647 32.5827 25.7821C31.9457 26.0881 31.3344 26.4382 30.7529 26.8285C30.5276 26.9797 30.2512 27.04 29.9845 26.9861L27.4786 26.4791C25.8368 26.1469 24.1643 26.8907 23.3264 28.3256L21.9318 30.7138C21.0939 32.1487 21.2787 33.9527 22.3905 35.1924L24.0883 37.0854C24.2685 37.2863 24.3539 37.5523 24.3347 37.8202C24.3099 38.1651 24.2973 38.5134 24.2973 38.8645C24.2973 39.2157 24.3099 39.564 24.3347 39.9089C24.3539 40.1767 24.2685 40.4428 24.0883 40.6437L22.3905 42.5367C21.2787 43.7764 21.0939 45.5804 21.9318 47.0153L23.3264 49.4035C24.1643 50.8384 25.8368 51.5822 27.4786 51.25L29.9844 50.743C30.2512 50.6891 30.5276 50.7494 30.7529 50.9006C31.3344 51.2908 31.9457 51.641 32.5827 51.947C32.8272 52.0644 33.0178 52.2707 33.1038 52.5257L33.9117 54.9222C34.4416 56.494 35.9294 57.5543 37.6052 57.5543H40.3944C42.0702 57.5543 43.558 56.494 44.0879 54.9222L44.8958 52.5257C44.9818 52.2707 45.1724 52.0644 45.4169 51.947C46.0539 51.641 46.6652 51.2909 47.2467 50.9006C47.4719 50.7494 47.7484 50.6891 48.0151 50.7431L50.5208 51.25C52.1626 51.5822 53.8352 50.8384 54.6731 49.4035L56.0676 47.0153C56.9055 45.5804 56.7208 43.7764 55.6089 42.5367L53.9113 40.6439C53.7311 40.443 53.6457 40.1769 53.6649 39.9091C53.6897 39.5641 53.7023 39.2158 53.7023 38.8645C53.7023 38.5133 53.6897 38.165 53.6649 37.82C53.6457 37.5522 53.7311 37.2861 53.9113 37.0852L55.6089 35.1924C56.7208 33.9527 56.9055 32.1486 56.0676 30.7137L54.6731 28.3256C53.8352 26.8907 52.1626 26.1469 50.5208 26.479L48.0151 26.986C47.7484 27.04 47.4719 26.9796 47.2466 26.8285C46.6652 26.4382 46.0539 26.0881 45.417 25.7821C45.1724 25.6647 44.9818 25.4584 44.8958 25.2034L44.0879 22.8069C43.558 21.235 42.0702 20.1748 40.3944 20.1748H37.6052Z" stroke="#1B1D1F" stroke-width="2"/>
<path fill-rule="evenodd" clip-rule="evenodd" d="M38.9998 44.6386C42.2251 44.6386 44.8398 42.0535 44.8398 38.8645C44.8398 35.6756 42.2251 33.0905 38.9998 33.0905C35.7745 33.0905 33.1598 35.6756 33.1598 38.8645C33.1598 42.0535 35.7745 44.6386 38.9998 44.6386Z" stroke="#1B1D1F" stroke-width="2"/>
</svg>
